<svg class="brand__mark" viewBox="0 0 48 48" fill="none" xmlns="http://www.w3.org/2000/svg" role="img" aria-hidden="true">
  <rect x="1" y="1" width="46" height="46" rx="14" fill="#1E3A2B"/>
  <rect x="4.5" y="4.5" width="39" height="39" rx="11" fill="none" stroke="#46735A" stroke-opacity="0.5"/>
  <!-- Hyrcanian leaf body -->
  <path d="M24 10c7 4 11 9 11 16 0 6.2-4.9 11-11 11s-11-4.8-11-11c0-7 4-12 11-16Z" fill="#F4ECD8"/>
  <!-- central vein -->
  <path d="M24 14v20" stroke="#1E3A2B" stroke-width="1.6" stroke-linecap="round"/>
  <!-- side veins -->
  <path d="M24 22c-2.6-.4-4.4-1.6-5.8-3.4M24 27c2.8-.4 4.7-1.7 6.1-3.7" stroke="#1E3A2B" stroke-width="1.4" stroke-linecap="round"/>
  <!-- paw toes nested at the leaf base -->
  <circle cx="20" cy="31" r="1.7" fill="#BE5F3A"/>
  <circle cx="28" cy="31" r="1.7" fill="#BE5F3A"/>
  <circle cx="24" cy="33" r="1.9" fill="#D6A23E"/>
</svg>
